<svg width="23" height="25" viewBox="0 0 23 25" fill="none" xmlns="http://www.w3.org/2000/svg">
<path d="M11.5 6.05103C11.3 6.05103 11.1378 5.88889 11.1378 5.68888V4.51377C11.1378 4.3137 11.3 4.15161 11.5 4.15161C11.7 4.15161 11.8622 4.31375 11.8622 4.51377V5.68883C11.8622 5.88889 11.7 6.05103 11.5 6.05103Z" fill="#E8F9FC"/>
<path d="M10.7676 9.57456C10.9606 9.39587 11.2179 9.286 11.5 9.286C11.7821 9.286 12.0394 9.39587 12.2324 9.57456C12.3027 9.63971 12.389 9.68181 12.4798 9.70004V6.35987C12.4798 5.89299 12.1013 5.51453 11.6344 5.51453H11.3655C10.8986 5.51453 10.5202 5.89299 10.5202 6.35987V9.70018C10.6097 9.68237 10.6957 9.64117 10.7676 9.57456Z" fill="#00D2FC"/>
<path d="M11.5 6.35987C11.5 6.02012 11.7009 5.728 11.9899 5.59365C11.8817 5.54335 11.7616 5.51453 11.6344 5.51453H11.3655C10.8986 5.51453 10.5202 5.89299 10.5202 6.35987V9.70018C10.6096 9.68242 10.6956 9.64121 10.7676 9.5746C10.9606 9.39592 11.2178 9.28604 11.5 9.28604V6.35987H11.5Z" fill="#00C2FB"/>
<path d="M2.16574 14.8236H20.8343V19.3789H2.16574V14.8236Z" fill="#FFB640"/>
<path d="M2.16574 14.8236H5.05769V19.3789H2.16574V14.8236Z" fill="#FFA90F"/>
<path d="M3.49432 12.3447H19.4057V15.0074H3.49432V12.3447Z" fill="#FEE17D"/>
<path d="M3.49432 12.3447H5.0577V15.0074H3.49432V12.3447Z" fill="#FFCE65"/>
<path d="M2.16574 19.2534V21.7094C2.16574 22.1096 2.49016 22.4823 2.89033 22.4823H20.1097C20.5099 22.4823 20.8343 22.1096 20.8343 21.7094V19.2534H2.16574Z" fill="#FEE17D"/>
<path d="M5.05769 19.2534H2.16574V21.7094C2.16574 22.1096 2.49016 22.4823 2.89033 22.4823H5.05769V19.2534Z" fill="#FFCE65"/>
<path d="M22.0563 22.434H0.943773C0.812851 22.434 0.706726 22.5401 0.706726 22.671C0.706726 23.7014 1.54199 24.5366 2.57235 24.5366H20.4278C21.4581 24.5366 22.2934 23.7014 22.2934 22.671C22.2934 22.5401 22.1872 22.434 22.0563 22.434Z" fill="#E8F9FC"/>
<path d="M4.52201 22.671C4.52201 22.5401 4.62813 22.434 4.75906 22.434H0.943759C0.812837 22.434 0.706665 22.5401 0.706665 22.671C0.706665 23.7014 1.54193 24.5366 2.57229 24.5366H6.38759C5.35727 24.5366 4.52201 23.7014 4.52201 22.671Z" fill="#D9E7EC"/>
<path d="M20.2787 9.19608C19.9498 9.15993 19.6461 9.27422 19.426 9.47803C19.2258 9.66337 18.9175 9.65512 18.7262 9.47803C18.5332 9.29934 18.2759 9.18947 17.9938 9.18947C17.7116 9.18947 17.4544 9.29934 17.2614 9.47803C17.0612 9.66337 16.7529 9.65517 16.5616 9.47803C16.3686 9.29934 16.1113 9.18947 15.8292 9.18947C15.5471 9.18947 15.2898 9.29934 15.0968 9.47803C14.8966 9.66337 14.5883 9.65517 14.397 9.47803C14.204 9.29934 13.9467 9.18947 13.6646 9.18947C13.3825 9.18947 13.1252 9.29934 12.9322 9.47803C12.732 9.66337 12.4237 9.65517 12.2324 9.47803C12.0394 9.29934 11.7822 9.18947 11.5 9.18947C11.2179 9.18947 10.9606 9.29934 10.7676 9.47803C10.5674 9.66337 10.2591 9.65517 10.0678 9.47803C9.87481 9.29934 9.61756 9.18947 9.33542 9.18947C9.05328 9.18947 8.79598 9.29934 8.60304 9.47803C8.40284 9.66337 8.09449 9.65517 7.9032 9.47803C7.71021 9.29934 7.45296 9.18947 7.17082 9.18947C6.88868 9.18947 6.63138 9.29934 6.43845 9.47803C6.23824 9.66337 5.9299 9.65517 5.7386 9.47803C5.54562 9.29934 5.28837 9.18947 5.00623 9.18947C4.72409 9.18947 4.46679 9.29934 4.27385 9.47803C4.0737 9.66337 3.76535 9.65517 3.57406 9.47803C3.35398 9.27422 3.05023 9.15993 2.72131 9.19608C2.16884 9.25683 1.75934 9.74029 1.75934 10.296V15.5989C1.75934 16.1601 2.17662 16.6469 2.73518 16.701C3.3777 16.7633 3.92393 16.2543 3.92393 15.6239V13.8637C3.92393 13.3025 4.34121 12.8158 4.89978 12.7616C5.54229 12.6993 6.08852 13.2083 6.08852 13.8388V15.5989C6.08852 16.1601 6.50581 16.6469 7.06437 16.701C7.70688 16.7633 8.25312 16.2543 8.25312 15.6239V13.8637C8.25312 13.3025 8.6704 12.8158 9.22896 12.7616C9.87148 12.6993 10.4177 13.2083 10.4177 13.8388V15.5989C10.4177 16.1601 10.835 16.6469 11.3936 16.701C12.0361 16.7633 12.5823 16.2543 12.5823 15.6239V13.8637C12.5823 13.3025 12.9996 12.8158 13.5582 12.7616C14.2007 12.6993 14.7469 13.2083 14.7469 13.8388V15.5989C14.7469 16.1601 15.1642 16.6469 15.7227 16.701C16.3653 16.7633 16.9115 16.2543 16.9115 15.6239V13.8637C16.9115 13.3025 17.3288 12.8158 17.8873 12.7616C18.5299 12.6993 19.0761 13.2083 19.0761 13.8388V15.5989C19.0761 16.1601 19.4934 16.6469 20.0519 16.701C20.6944 16.7633 21.2407 16.2543 21.2407 15.6239V10.296C21.2407 9.74029 20.8312 9.25678 20.2787 9.19608Z" fill="#F27182"/>
<path d="M21.1856 12.7617C20.6271 12.8158 20.2098 13.3025 20.2098 13.8637V15.6239C20.2098 16.0322 19.9805 16.3893 19.6445 16.5735C19.7672 16.6415 19.9044 16.6867 20.0519 16.701C20.6944 16.7633 21.2406 16.2543 21.2406 15.6239V12.7578C21.2224 12.7587 21.2041 12.7599 21.1856 12.7617Z" fill="#ED5469"/>
<path d="M12.5273 12.7616C11.9687 12.8158 11.5515 13.3025 11.5515 13.8637V15.6239C11.5515 16.0321 11.3221 16.3893 10.9861 16.5735C11.1089 16.6415 11.2461 16.6867 11.3935 16.701C12.0361 16.7633 12.5823 16.2543 12.5823 15.6239V13.8637C12.5823 13.4507 12.8087 13.0787 13.1507 12.8891C12.9679 12.7889 12.7537 12.7397 12.5273 12.7616Z" fill="#ED5469"/>
<path d="M16.8565 12.7616C16.2979 12.8158 15.8807 13.3025 15.8807 13.8637V15.6239C15.8807 16.0321 15.6513 16.3893 15.3153 16.5735C15.4381 16.6415 15.5753 16.6867 15.7227 16.7009C16.3652 16.7632 16.9115 16.2542 16.9115 15.6238V13.8636C16.9115 13.4507 17.1379 13.0787 17.4799 12.8891C17.2971 12.7889 17.0829 12.7397 16.8565 12.7616Z" fill="#ED5469"/>
<path d="M8.19811 12.7616C7.63955 12.8158 7.22226 13.3025 7.22226 13.8637V15.6239C7.22226 16.0321 6.993 16.3893 6.65695 16.5735C6.77967 16.6415 6.91687 16.6867 7.06434 16.7009C7.70686 16.7632 8.25309 16.2542 8.25309 15.6238V13.8636C8.25309 13.4507 8.47954 13.0787 8.8215 12.8891C8.63873 12.7889 8.42447 12.7397 8.19811 12.7616Z" fill="#ED5469"/>
<path d="M5.05768 10.296C5.05768 9.90473 5.26117 9.55003 5.5741 9.35273C5.40887 9.24961 5.21443 9.18947 5.00626 9.18947C4.72412 9.18947 4.46687 9.29934 4.27388 9.47803C4.07373 9.66333 3.76538 9.65517 3.57409 9.47803C3.35401 9.27422 3.05026 9.15993 2.72134 9.19608C2.16887 9.25683 1.75937 9.74029 1.75937 10.296V15.5989C1.75937 16.1601 2.17665 16.6469 2.73521 16.701C3.37773 16.7633 3.92396 16.2543 3.92396 15.6239V13.8637C3.92396 13.3025 4.34124 12.8158 4.89981 12.7616C4.95324 12.7565 5.00588 12.7556 5.05773 12.758V10.296H5.05768Z" fill="#ED5469"/>
<path d="M12.8103 1.90498L11.7441 0.649578C11.6162 0.498969 11.3838 0.498969 11.2559 0.649578L10.1898 1.90503C9.24158 3.02155 10.0352 4.73656 11.5 4.73656C12.9649 4.73656 13.7585 3.02155 12.8103 1.90498Z" fill="#FEE17D"/>
<path d="M11.1696 1.90503L11.9899 0.939031L11.7441 0.649578C11.6162 0.498969 11.3838 0.498969 11.2559 0.649578L10.1898 1.90503C9.24158 3.02159 10.0352 4.73661 11.5 4.73661C11.6735 4.73661 11.8371 4.71186 11.9899 4.66761C10.8519 4.33817 10.3337 2.88941 11.1696 1.90503Z" fill="#FFCE65"/>
<path d="M12.2078 3.20699L11.6319 2.5288C11.5628 2.44743 11.4372 2.44743 11.3682 2.5288L10.7922 3.20699C10.28 3.81018 10.7087 4.73662 11.5 4.73662C12.2914 4.73662 12.72 3.81018 12.2078 3.20699Z" fill="#FFB640"/>
<path d="M11.772 3.20699L11.9899 2.9504L11.6319 2.5288C11.5628 2.44743 11.4373 2.44743 11.3682 2.5288L10.7922 3.20699C10.28 3.81018 10.7087 4.73662 11.5 4.73662C11.686 4.73662 11.8515 4.68501 11.9899 4.5989C11.5393 4.31859 11.3802 3.66843 11.772 3.20699Z" fill="#FFA90F"/>
</svg>
