<svg width="22" height="22" viewBox="0 0 22 22" fill="none" xmlns="http://www.w3.org/2000/svg">
<path d="M11 21.5469C16.8249 21.5469 21.5469 16.8249 21.5469 11C21.5469 5.17512 16.8249 0.453125 11 0.453125C5.17512 0.453125 0.453125 5.17512 0.453125 11C0.453125 16.8249 5.17512 21.5469 11 21.5469Z" fill="url(#paint0_linear_239_2375)"/>
<path d="M13.2406 5.14062H8.76407C6.7672 5.14062 5.14532 6.7625 5.14532 8.75937V13.2359C5.14532 15.2328 6.7672 16.8547 8.76407 16.8547H13.2406C15.2375 16.8547 16.8594 15.2328 16.8594 13.2359V8.75937C16.8594 6.7625 15.2375 5.14062 13.2406 5.14062ZM15.5516 13.2406C15.5516 14.5156 14.5156 15.5562 13.2359 15.5562H8.75939C7.48439 15.5562 6.44376 14.5203 6.44376 13.2406V8.76406C6.44376 7.48906 7.4797 6.44844 8.75939 6.44844H13.2359C14.5109 6.44844 15.5516 7.48438 15.5516 8.76406V13.2406Z" fill="white"/>
<path d="M11 8.00464C9.35001 8.00464 8.0047 9.34995 8.0047 11C8.0047 12.65 9.35001 13.9953 11 13.9953C12.65 13.9953 13.9953 12.65 13.9953 11C13.9953 9.34995 12.65 8.00464 11 8.00464ZM11 12.8187C9.99689 12.8187 9.18126 12.0031 9.18126 11C9.18126 9.99683 9.99689 9.1812 11 9.1812C12.0031 9.1812 12.8188 9.99683 12.8188 11C12.8188 12.0031 12.0031 12.8187 11 12.8187Z" fill="white"/>
<path d="M14.2234 8.33301C14.4994 8.28827 14.6868 8.0283 14.6421 7.75234C14.5974 7.47638 14.3374 7.28894 14.0614 7.33367C13.7855 7.37841 13.598 7.63838 13.6428 7.91434C13.6875 8.1903 13.9475 8.37774 14.2234 8.33301Z" fill="white"/>
<defs>
<linearGradient id="paint0_linear_239_2375" x1="2.96933" y1="19.0307" x2="17.9576" y2="4.04239" gradientUnits="userSpaceOnUse">
<stop stop-color="#FEE411"/>
<stop offset="0.0518459" stop-color="#FEDB16"/>
<stop offset="0.1381" stop-color="#FEC125"/>
<stop offset="0.2481" stop-color="#FE983D"/>
<stop offset="0.3762" stop-color="#FE5F5E"/>
<stop offset="0.5" stop-color="#FE2181"/>
<stop offset="1" stop-color="#9000DC"/>
</linearGradient>
</defs>
</svg>
