<svg width="24" height="25" viewBox="0 0 24 25" fill="none" xmlns="http://www.w3.org/2000/svg">
<path d="M12 2.53662C6.49 2.53662 2 7.02662 2 12.5366C2 18.0466 6.49 22.5366 12 22.5366C17.51 22.5366 22 18.0466 22 12.5366C22 7.02662 17.51 2.53662 12 2.53662ZM16.78 10.2366L11.11 15.9066C10.97 16.0466 10.78 16.1266 10.58 16.1266C10.38 16.1266 10.19 16.0466 10.05 15.9066L7.22 13.0766C6.93 12.7866 6.93 12.3066 7.22 12.0166C7.51 11.7266 7.99 11.7266 8.28 12.0166L10.58 14.3166L15.72 9.17662C16.01 8.88662 16.49 8.88662 16.78 9.17662C17.07 9.46662 17.07 9.93662 16.78 10.2366Z" fill="#4EDF9A"/>
</svg>
