<svg width="16" height="14" viewBox="0 0 16 14" fill="none" xmlns="http://www.w3.org/2000/svg">
<path d="M10.5804 8.07973C10.5804 9.50263 9.4229 10.6601 8 10.6601C6.5771 10.6601 5.42003 9.50263 5.42003 8.07973C5.42003 6.65683 6.5771 5.49931 8 5.49931C9.4229 5.49931 10.5804 6.65727 10.5804 8.07973ZM16 4.41566V11.7447C16 12.7217 15.2078 13.5139 14.2308 13.5139H1.76923C0.792171 13.5139 0 12.7217 0 11.7447V4.41566C0 3.4386 0.792171 2.64643 1.76923 2.64643H3.94538V2.03428C3.94538 1.1793 4.63803 0.486206 5.49345 0.486206H10.5066C11.362 0.486206 12.0546 1.1793 12.0546 2.03428V2.64599H14.2308C15.2078 2.64643 16 3.4386 16 4.41566ZM11.9073 8.07973C11.9073 5.92525 10.1545 4.17239 8 4.17239C5.84597 4.17239 4.09311 5.92525 4.09311 8.07973C4.09311 10.2342 5.84597 11.9871 8 11.9871C10.1545 11.9871 11.9073 10.2342 11.9073 8.07973Z" fill="#29282B"/>
</svg>
