<svg width="22" height="17" viewBox="0 0 22 17" fill="none" xmlns="http://www.w3.org/2000/svg">
<path fill-rule="evenodd" clip-rule="evenodd" d="M16.8868 8.14651C16.5188 8.14651 16.1978 7.87551 16.1448 7.50051C16.0878 7.08951 16.3728 6.71051 16.7838 6.65351C17.8238 6.50751 18.6088 5.60551 18.6108 4.55351C18.6108 3.51051 17.8628 2.62851 16.8318 2.45951C16.4238 2.39251 16.1468 2.00651 16.2138 1.59751C16.2818 1.18851 16.6648 0.914506 17.0758 0.979506C18.8338 1.26851 20.1108 2.77251 20.1108 4.55551C20.1068 6.35051 18.7658 7.89051 16.9908 8.13951C16.9558 8.14451 16.9208 8.14651 16.8868 8.14651Z" fill="#8954C2"/>
<mask id="mask0_239_2322" style="mask-type:alpha" maskUnits="userSpaceOnUse" x="17" y="10" width="5" height="5">
<path fill-rule="evenodd" clip-rule="evenodd" d="M17.9781 10.0016H21.7721V14.5312H17.9781V10.0016Z" fill="white"/>
</mask>
<g mask="url(#mask0_239_2322)">
<path fill-rule="evenodd" clip-rule="evenodd" d="M19.8614 14.5312C19.5594 14.5312 19.2744 14.3472 19.1604 14.0482C19.0124 13.6612 19.2074 13.2272 19.5944 13.0802C20.2724 12.8222 20.2724 12.5372 20.2724 12.4002C20.2724 11.9622 19.7154 11.6562 18.6174 11.4922C18.2084 11.4302 17.9254 11.0492 17.9864 10.6382C18.0474 10.2282 18.4274 9.95522 18.8404 10.0082C21.2634 10.3712 21.7724 11.5092 21.7724 12.4002C21.7724 12.9442 21.5584 13.9372 20.1284 14.4822C20.0404 14.5152 19.9504 14.5312 19.8614 14.5312Z" fill="#8954C2"/>
</g>
<path fill-rule="evenodd" clip-rule="evenodd" d="M10.8867 11.914C8.5107 11.914 5.6777 12.206 5.6777 13.596C5.6777 14.997 8.5107 15.291 10.8867 15.291C13.2627 15.291 16.0947 15 16.0947 13.613C16.0947 12.209 13.2627 11.914 10.8867 11.914ZM10.8867 16.791C9.2277 16.791 4.1777 16.791 4.1777 13.596C4.1777 10.414 9.2277 10.414 10.8867 10.414C12.5457 10.414 17.5947 10.414 17.5947 13.613C17.5947 16.791 12.7217 16.791 10.8867 16.791Z" fill="#8954C2"/>
<path fill-rule="evenodd" clip-rule="evenodd" d="M10.8867 1.5C9.1947 1.5 7.8187 2.877 7.8187 4.569C7.8157 5.389 8.1297 6.156 8.7047 6.735C9.2797 7.314 10.0457 7.635 10.8617 7.638L10.8867 8.388V7.638C12.5787 7.638 13.9557 6.262 13.9557 4.569C13.9557 2.877 12.5787 1.5 10.8867 1.5ZM10.8867 9.138H10.8597C9.6397 9.134 8.4967 8.656 7.6407 7.792C6.7827 6.929 6.3137 5.783 6.3187 4.566C6.3187 2.05 8.3677 0 10.8867 0C13.4067 0 15.4557 2.05 15.4557 4.569C15.4557 7.088 13.4067 9.138 10.8867 9.138Z" fill="#8954C2"/>
<path fill-rule="evenodd" clip-rule="evenodd" d="M4.88569 8.14651C4.85169 8.14651 4.81669 8.14451 4.78169 8.13951C3.00669 7.89051 1.66669 6.35051 1.66269 4.55751C1.66269 2.77251 2.93969 1.26851 4.69769 0.979511C5.11869 0.913511 5.49169 1.19051 5.55969 1.59751C5.62669 2.00651 5.34969 2.39251 4.94169 2.45951C3.91069 2.62851 3.16269 3.51051 3.16269 4.55551C3.16469 5.60551 3.94969 6.50851 4.98869 6.65351C5.39969 6.71051 5.68469 7.08951 5.62769 7.50051C5.57469 7.87551 5.25369 8.14651 4.88569 8.14651Z" fill="#8954C2"/>
<path fill-rule="evenodd" clip-rule="evenodd" d="M1.91209 14.5312C1.82309 14.5312 1.73309 14.5152 1.64509 14.4822C0.214092 13.9362 9.15527e-05 12.9432 9.15527e-05 12.4002C9.15527e-05 11.5102 0.509092 10.3712 2.93309 10.0082C3.34609 9.95619 3.72409 10.2282 3.78609 10.6382C3.84709 11.0492 3.56409 11.4302 3.15509 11.4922C2.05709 11.6562 1.50009 11.9622 1.50009 12.4002C1.50009 12.5372 1.50009 12.8212 2.17909 13.0802C2.56609 13.2272 2.76109 13.6612 2.61309 14.0482C2.49909 14.3472 2.21409 14.5312 1.91209 14.5312Z" fill="#8954C2"/>
</svg>
