<svg width="24" height="25" viewBox="0 0 24 25" fill="none" xmlns="http://www.w3.org/2000/svg">
<path d="M12 2.53662C6.49 2.53662 2 7.02662 2 12.5366C2 18.0466 6.49 22.5366 12 22.5366C17.51 22.5366 22 18.0466 22 12.5366C22 7.02662 17.51 2.53662 12 2.53662ZM15.36 14.8366C15.65 15.1266 15.65 15.6066 15.36 15.8966C15.21 16.0466 15.02 16.1166 14.83 16.1166C14.64 16.1166 14.45 16.0466 14.3 15.8966L12 13.5966L9.7 15.8966C9.55 16.0466 9.36 16.1166 9.17 16.1166C8.98 16.1166 8.79 16.0466 8.64 15.8966C8.35 15.6066 8.35 15.1266 8.64 14.8366L10.94 12.5366L8.64 10.2366C8.35 9.94662 8.35 9.46662 8.64 9.17662C8.93 8.88662 9.41 8.88662 9.7 9.17662L12 11.4766L14.3 9.17662C14.59 8.88662 15.07 8.88662 15.36 9.17662C15.65 9.46662 15.65 9.94662 15.36 10.2366L13.06 12.5366L15.36 14.8366Z" fill="#FE6F82"/>
</svg>
